<svg xmlns="http://www.w3.org/2000/svg" version="1.1" xmlns:xlink="http://www.w3.org/1999/xlink" xmlns:svgjs="http://svgjs.dev/svgjs" width="1500" height="1500" viewBox="0 0 1500 1500"><rect width="1500" height="1500" fill="#ffffff"></rect><g transform="matrix(0.6666666666666666,0,0,0.6666666666666666,249.39393939393938,680.9571421403582)"><svg viewBox="0 0 396 55" data-background-color="#ffffff" preserveAspectRatio="xMidYMid meet" height="208" width="1500" xmlns="http://www.w3.org/2000/svg" xmlns:xlink="http://www.w3.org/1999/xlink"><g id="tight-bounds" transform="matrix(1,0,0,1,0.2400000000000091,-0.11521262778634878)"><svg viewBox="0 0 395.52 55.230425255572676" height="55.230425255572676" width="395.52"><g><svg viewBox="0 0 504.1907560523067 70.4052130529369" height="55.230425255572676" width="395.52"><g><rect width="6.317626638103206" height="70.4052130529369" x="85.81483978566109" y="0" fill="#0092c5" opacity="1" stroke-width="0" stroke="transparent" fill-opacity="1" class="rect-qz-0" data-fill-palette-color="primary" rx="1%" id="qz-0" data-palette-color="#0092c5"></rect></g><g transform="matrix(1,0,0,1,108.67075605230673,0.17513734590282581)"><svg viewBox="0 0 395.52 70.05493836113125" height="70.05493836113125" width="395.52"><g id="textblocktransform"><svg viewBox="0 0 395.52 70.05493836113125" height="70.05493836113125" width="395.52" id="textblock"><g><svg viewBox="0 0 395.52 70.05493836113125" height="70.05493836113125" width="395.52"><g transform="matrix(1,0,0,1,0,0)"><svg width="395.52" viewBox="1.2 -37.7 269.31 47.71" height="70.05493836113125" data-palette-color="#0092c5"><path d="M1.2-24.51L1.2-24.51Q1.2-26.68 2.03-28.59 2.86-30.49 4.28-31.92 5.71-33.35 7.62-34.18 9.52-35.01 11.69-35.01L11.69-35.01 27.76-35.01 27.76-28 11.69-28Q10.96-28 10.33-27.73 9.69-27.47 9.22-26.99 8.74-26.51 8.47-25.88 8.2-25.24 8.2-24.51L8.2-24.51Q8.2-23.78 8.47-23.13 8.74-22.49 9.22-22.01 9.69-21.53 10.33-21.26 10.96-21 11.69-21L11.69-21 18.7-21Q20.87-21 22.79-20.18 24.71-19.36 26.14-17.93 27.56-16.5 28.38-14.59 29.2-12.67 29.2-10.5L29.2-10.5Q29.2-8.33 28.38-6.42 27.56-4.52 26.14-3.09 24.71-1.66 22.79-0.83 20.87 0 18.7 0L18.7 0 3.15 0 3.15-7.01 18.7-7.01Q19.43-7.01 20.07-7.28 20.7-7.54 21.18-8.02 21.66-8.5 21.92-9.13 22.19-9.77 22.19-10.5L22.19-10.5Q22.19-11.23 21.92-11.87 21.66-12.5 21.18-12.98 20.7-13.45 20.07-13.72 19.43-13.99 18.7-13.99L18.7-13.99 11.69-13.99Q9.52-13.99 7.62-14.82 5.71-15.65 4.28-17.08 2.86-18.51 2.03-20.42 1.2-22.34 1.2-24.51ZM39.74-14.94L39.74 0 33.08 0 33.08-36.55 39.74-36.55 39.74-25Q40.94-25.9 42.21-26.28 43.48-26.66 44.8-26.66L44.8-26.66Q47.21-26.66 49.34-25.74 51.46-24.83 53.04-23.23 54.61-21.63 55.53-19.49 56.44-17.36 56.44-14.94L56.44-14.94 56.44 0 49.73 0 49.73-14.94 49.78-14.94Q49.78-15.97 49.39-16.88 49-17.8 48.31-18.48 47.63-19.17 46.73-19.56 45.82-19.95 44.8-19.95L44.8-19.95Q43.75-19.95 42.82-19.56 41.89-19.17 41.21-18.48 40.52-17.8 40.13-16.88 39.74-15.97 39.74-14.94L39.74-14.94ZM86.45-13.31L86.45-13.31Q86.45-10.38 85.4-7.85 84.35-5.32 82.54-3.48 80.73-1.64 78.3-0.57 75.87 0.49 73.09 0.49L73.09 0.49Q70.33 0.49 67.9-0.57 65.47-1.64 63.65-3.48 61.84-5.32 60.79-7.85 59.74-10.38 59.74-13.31L59.74-13.31Q59.74-16.28 60.79-18.82 61.84-21.36 63.65-23.21 65.47-25.05 67.9-26.1 70.33-27.15 73.09-27.15L73.09-27.15Q75.87-27.15 78.3-26.16 80.73-25.17 82.54-23.35 84.35-21.53 85.4-18.98 86.45-16.43 86.45-13.31ZM79.73-13.31L79.73-13.31Q79.73-14.92 79.21-16.22 78.68-17.53 77.78-18.47 76.87-19.41 75.67-19.91 74.46-20.41 73.09-20.41L73.09-20.41Q71.72-20.41 70.52-19.91 69.31-19.41 68.42-18.47 67.52-17.53 67.01-16.22 66.5-14.92 66.5-13.31L66.5-13.31Q66.5-11.79 67.01-10.5 67.52-9.2 68.42-8.25 69.31-7.3 70.52-6.75 71.72-6.2 73.09-6.2L73.09-6.2Q74.46-6.2 75.67-6.71 76.87-7.23 77.78-8.15 78.68-9.08 79.21-10.4 79.73-11.72 79.73-13.31ZM96.84-1.76L96.84 9.96 90.13 9.96 90.13-26.15 91.74-26.15 94.4-23Q95.31-23.85 96.38-24.61 97.45-25.37 98.61-25.92 99.77-26.46 101.02-26.78 102.26-27.1 103.53-27.1L103.53-27.1Q106.29-27.1 108.72-26.11 111.15-25.12 112.97-23.32 114.79-21.51 115.84-18.96 116.89-16.41 116.89-13.31L116.89-13.31Q116.89-10.08 115.84-7.51 114.79-4.93 112.97-3.14 111.15-1.34 108.72-0.39 106.29 0.56 103.53 0.56L103.53 0.56Q102.65 0.56 101.79 0.37 100.92 0.17 100.08-0.16 99.24-0.49 98.42-0.9 97.6-1.32 96.84-1.76L96.84-1.76ZM110.2-13.31L110.2-13.31Q110.2-14.97 109.67-16.28 109.15-17.6 108.24-18.52 107.34-19.43 106.12-19.92 104.9-20.41 103.53-20.41L103.53-20.41Q102.17-20.41 100.96-19.92 99.75-19.43 98.85-18.52 97.94-17.6 97.42-16.28 96.89-14.97 96.89-13.31L96.89-13.31Q96.89-11.72 97.42-10.4 97.94-9.08 98.85-8.15 99.75-7.23 100.96-6.71 102.17-6.2 103.53-6.2L103.53-6.2Q104.9-6.2 106.12-6.71 107.34-7.23 108.24-8.15 109.15-9.08 109.67-10.4 110.2-11.72 110.2-13.31ZM135.98-28L135.98 0 128.99 0 128.99-28 118.47-28 118.47-35.01 146.47-35.01 146.47-28 135.98-28ZM156.14-14.94L156.14 0 149.47 0 149.47-36.55 156.14-36.55 156.14-25Q157.34-25.9 158.61-26.28 159.88-26.66 161.19-26.66L161.19-26.66Q163.61-26.66 165.73-25.74 167.86-24.83 169.43-23.23 171.01-21.63 171.92-19.49 172.84-17.36 172.84-14.94L172.84-14.94 172.84 0 166.13 0 166.13-14.94 166.17-14.94Q166.17-15.97 165.78-16.88 165.39-17.8 164.71-18.48 164.03-19.17 163.12-19.56 162.22-19.95 161.19-19.95L161.19-19.95Q160.14-19.95 159.22-19.56 158.29-19.17 157.6-18.48 156.92-17.8 156.53-16.88 156.14-15.97 156.14-14.94L156.14-14.94ZM185.43-33.25L185.43-33.25Q185.43-32.32 185.08-31.52 184.73-30.71 184.12-30.11 183.51-29.52 182.69-29.16 181.87-28.81 180.94-28.81L180.94-28.81Q180.01-28.81 179.2-29.16 178.38-29.52 177.78-30.11 177.18-30.71 176.83-31.52 176.47-32.32 176.47-33.25L176.47-33.25Q176.47-34.16 176.83-34.97 177.18-35.79 177.78-36.39 178.38-36.99 179.2-37.34 180.01-37.7 180.94-37.7L180.94-37.7Q181.87-37.7 182.69-37.34 183.51-36.99 184.12-36.39 184.73-35.79 185.08-34.97 185.43-34.16 185.43-33.25ZM184.29-26.15L184.29 0 177.57 0 177.57-26.15 184.29-26.15ZM196.03-14.94L196.03 0 189.36 0 189.36-26.15 190.97-26.15 193.17-23.61Q194.78-25.07 196.82-25.87 198.86-26.66 201.08-26.66L201.08-26.66Q203.47-26.66 205.6-25.74 207.72-24.83 209.31-23.23 210.9-21.63 211.81-19.49 212.73-17.36 212.73-14.94L212.73-14.94 212.73 0 206.06 0 206.06-14.94Q206.06-15.97 205.67-16.88 205.28-17.8 204.6-18.48 203.91-19.17 203.01-19.56 202.11-19.95 201.08-19.95L201.08-19.95Q200.03-19.95 199.1-19.56 198.18-19.17 197.49-18.48 196.81-17.8 196.42-16.88 196.03-15.97 196.03-14.94L196.03-14.94ZM236.06-13.31L236.06-13.31Q236.06-14.67 235.54-15.95 235.01-17.24 234.11-18.23 233.21-19.21 232-19.81 230.79-20.41 229.42-20.41L229.42-20.41Q228.06-20.41 226.85-19.95 225.64-19.48 224.75-18.58 223.86-17.68 223.34-16.35 222.83-15.01 222.83-13.31L222.83-13.31Q222.83-11.67 223.34-10.36 223.86-9.06 224.75-8.13 225.64-7.2 226.85-6.7 228.06-6.2 229.42-6.2L229.42-6.2Q230.79-6.2 232-6.8 233.21-7.4 234.11-8.39 235.01-9.38 235.54-10.66 236.06-11.94 236.06-13.31ZM242.78-26.1L242.78-3.3Q242.78-0.54 241.73 1.88 240.68 4.3 238.86 6.1 237.04 7.91 234.61 8.96 232.18 10.01 229.42 10.01L229.42 10.01 226.08 9.96 226.08 3.3 229.37 3.34Q230.94 3.34 232.04 2.94 233.13 2.54 233.89 1.84 234.65 1.15 235.1 0.24 235.55-0.66 235.82-1.66L235.82-1.66Q235.43-1.03 234.7-0.62 233.96-0.22 233.07 0.04 232.18 0.29 231.22 0.39 230.25 0.49 229.42 0.49L229.42 0.49Q226.66 0.49 224.24-0.46 221.81-1.42 219.99-3.19 218.17-4.96 217.12-7.52 216.07-10.08 216.07-13.31L216.07-13.31Q216.07-16.26 217.12-18.8 218.17-21.34 219.99-23.19 221.81-25.05 224.24-26.1 226.66-27.15 229.42-27.15L229.42-27.15Q230.69-27.15 231.94-26.83 233.18-26.51 234.36-25.95 235.53-25.39 236.59-24.63 237.65-23.88 238.58-23L238.58-23 241.17-26.1 242.78-26.1ZM262.21 0L262.21 0 246.97 0 246.97-6.64 262.21-6.64Q262.89-6.64 263.38-7.13 263.87-7.62 263.87-8.3L263.87-8.3Q263.87-9.01 263.38-9.23 262.89-9.45 262.21-9.45L262.21-9.45 255.28-9.45Q253.54-9.45 252.03-10.11 250.51-10.77 249.39-11.9 248.27-13.04 247.62-14.55 246.97-16.06 246.97-17.8L246.97-17.8Q246.97-19.53 247.62-21.04 248.27-22.56 249.39-23.68 250.51-24.8 252.03-25.45 253.54-26.1 255.28-26.1L255.28-26.1 268.78-26.1 268.78-19.46 255.28-19.46Q254.59-19.46 254.1-18.97 253.62-18.48 253.62-17.8L253.62-17.8Q253.62-17.09 254.1-16.59 254.59-16.09 255.28-16.09L255.28-16.09 262.21-16.09Q263.92-16.09 265.43-15.52 266.95-14.94 268.07-13.92 269.19-12.89 269.85-11.45 270.51-10.01 270.51-8.3L270.51-8.3Q270.51-6.57 269.85-5.07 269.19-3.56 268.07-2.43 266.95-1.29 265.43-0.65 263.92 0 262.21 0Z" opacity="1" transform="matrix(1,0,0,1,0,0)" fill="#0092c5" class="wordmark-text-0" data-fill-palette-color="primary" id="text-0"></path></svg></g></svg></g></svg></g></svg></g><g transform="matrix(1,0,0,1,0,0.17513734590282581)"><svg viewBox="0 0 69.27655015711868 70.05493836113125" height="70.05493836113125" width="69.27655015711868"><g><svg xmlns="http://www.w3.org/2000/svg" xmlns:xlink="http://www.w3.org/1999/xlink" version="1.1" x="0" y="0" viewBox="5.5 5 89 90" enable-background="new 0 0 100 100" xml:space="preserve" height="70.05493836113125" width="69.27655015711868" class="icon-icon-0" data-fill-palette-color="accent" id="icon-0"><path d="M92.46 29.21c1.28-1.74 2.04-3.88 2.04-6.2 0-0.13-0.01-0.27-0.04-0.4l-0.01-0.04-1.99-9.96C92.27 11.67 91.45 11 90.5 11h-80c-0.88 0-1.66 0.58-1.92 1.43l-2.99 9.98-0.01 0.02C5.52 22.62 5.5 22.81 5.5 23c0 2.86 1.15 5.45 3 7.34v57.08c0 1.1 0.9 2 2 2s2-0.9 2-2V32.9c1.09 0.39 2.27 0.6 3.5 0.6 3.5 0 6.6-1.72 8.5-4.35 1.9 2.63 5 4.35 8.5 4.35s6.6-1.72 8.5-4.35c1.9 2.63 5 4.35 8.5 4.35s6.6-1.72 8.5-4.35c1.9 2.63 5 4.35 8.5 4.35s6.6-1.72 8.5-4.35c1.9 2.63 5 4.35 8.5 4.35 1.61 0 3.14-0.36 4.5-1.02v54.94c0 1.1 0.9 2 2 2s2-0.9 2-2v-57.8c0-0.14-0.01-0.27-0.04-0.4C92.46 29.21 92.46 29.21 92.46 29.21zM84 29.5c-3.58 0-6.5-2.92-6.5-6.5 0-1.1-0.9-2-2-2s-2 0.9-2 2c0 3.58-2.92 6.5-6.5 6.5s-6.5-2.92-6.5-6.5c0-1.1-0.9-2-2-2s-2 0.9-2 2c0 3.58-2.92 6.5-6.5 6.5s-6.5-2.92-6.5-6.5c0-1.1-0.9-2-2-2s-2 0.9-2 2c0 3.58-2.92 6.5-6.5 6.5s-6.5-2.92-6.5-6.5c0-1.1-0.9-2-2-2s-2 0.9-2 2c0 3.58-2.92 6.5-6.5 6.5-3.49 0-6.36-2.78-6.49-6.24L11.99 15h76.87l1.63 8.16C90.41 26.67 87.53 29.5 84 29.5zM92.5 25.5M75.5 25.5M92.5 25.5M7.5 25.5M88.5 9h-76c-1.104 0-2-0.896-2-2s0.896-2 2-2h76c1.104 0 2 0.896 2 2S89.604 9 88.5 9zM92.5 95h-85c-1.104 0-2-0.896-2-2s0.896-2 2-2h85c1.104 0 2 0.896 2 2S93.604 95 92.5 95zM38.5 87.208h-20c-1.104 0-2-0.896-2-2v-42c0-1.104 0.896-2 2-2h20c1.104 0 2 0.896 2 2v42C40.5 86.312 39.604 87.208 38.5 87.208zM20.5 83.208h16v-38h-16V83.208zM82.5 87.208h-36c-1.104 0-2-0.896-2-2v-42c0-1.104 0.896-2 2-2h36c1.104 0 2 0.896 2 2v42C84.5 86.312 83.604 87.208 82.5 87.208zM48.5 83.208h32v-38h-32V83.208zM33.75 66.208c0 1.105-0.895 2-2 2-1.105 0-2-0.895-2-2s0.895-2 2-2C32.855 64.208 33.75 65.104 33.75 66.208zM58.539 68.669c-0.512 0-1.023-0.195-1.414-0.586-0.781-0.781-0.781-2.048 0-2.828l4.922-4.921c0.781-0.781 2.047-0.781 2.828 0s0.781 2.048 0 2.828l-4.922 4.921C59.562 68.474 59.051 68.669 58.539 68.669zM65.539 68.669c-0.512 0-1.023-0.195-1.414-0.586-0.781-0.781-0.781-2.048 0-2.828l4.922-4.921c0.781-0.781 2.047-0.781 2.828 0s0.781 2.048 0 2.828l-4.922 4.921C66.562 68.474 66.051 68.669 65.539 68.669z" fill="#0092c5" data-fill-palette-color="accent"></path></svg></g></svg></g></svg></g><defs></defs></svg><rect width="395.52" height="55.230425255572676" fill="none" stroke="none" visibility="hidden"></rect></g></svg></g></svg>